# MagicaVoxel @ Ephtracy

# group
o 

# material
mtllib street_light.mtl
usemtl palette

# normals
vn -1 0 0
vn 1 0 0
vn 0 0 1
vn 0 0 -1
vn 0 -1 0
vn 0 1 0

# texcoords
vt 0.00195313 0.5
vt 0.994141 0.5

# verts
v -0.3 0 -0.5
v -0.3 0 -0.8
v -0.3 0.1 -0.5
v -0.3 0.1 -0.8
v -0.3 3.6 -0.6
v -0.3 3.6 -0.7
v -0.3 4 -0.6
v -0.3 4 -0.7
v -0.2 0 -0.4
v -0.2 0 -0.5
v -0.2 0 -0.8
v -0.2 0 -0.9
v -0.2 0.1 -0.4
v -0.2 0.1 -0.5
v -0.2 0.1 -0.8
v -0.2 0.1 -0.9
v -0.2 3.7 -0.5
v -0.2 3.7 -0.6
v -0.2 3.7 -0.7
v -0.2 3.7 -0.8
v -0.2 4 -0.5
v -0.2 4 -0.6
v -0.2 4 -0.7
v -0.2 4 -0.8
v -0.2 4.1 -0.6
v -0.2 4.1 -0.7
v -0.1 0.1 -0.6
v -0.1 0.1 -0.7
v -0.1 3.6 -0.4
v -0.1 3.6 -0.6
v -0.1 3.6 -0.7
v -0.1 3.6 -0.9
v -0.1 3.7 -0.5
v -0.1 3.7 -0.6
v -0.1 3.7 -0.7
v -0.1 3.7 -0.8
v -0.1 4 -0.4
v -0.1 4 -0.5
v -0.1 4 -0.6
v -0.1 4 -0.7
v -0.1 4 -0.8
v -0.1 4 -0.9
v -0.1 4.1 -0.5
v -0.1 4.1 -0.6
v -0.1 4.1 -0.7
v -0.1 4.1 -0.8
v -0.1 4.2 -0.6
v -0.1 4.2 -0.7
v 2.98023e-08 0.1 -0.6
v 2.98023e-08 0.1 -0.7
v 2.98023e-08 3.6 -0.4
v 2.98023e-08 3.6 -0.6
v 2.98023e-08 3.6 -0.7
v 2.98023e-08 3.6 -0.9
v 2.98023e-08 3.7 -0.5
v 2.98023e-08 3.7 -0.6
v 2.98023e-08 3.7 -0.7
v 2.98023e-08 3.7 -0.8
v 2.98023e-08 4 -0.4
v 2.98023e-08 4 -0.5
v 2.98023e-08 4 -0.6
v 2.98023e-08 4 -0.7
v 2.98023e-08 4 -0.8
v 2.98023e-08 4 -0.9
v 2.98023e-08 4.1 -0.5
v 2.98023e-08 4.1 -0.6
v 2.98023e-08 4.1 -0.7
v 2.98023e-08 4.1 -0.8
v 2.98023e-08 4.2 -0.6
v 2.98023e-08 4.2 -0.7
v 0.1 0 -0.4
v 0.1 0 -0.5
v 0.1 0 -0.8
v 0.1 0 -0.9
v 0.1 0.1 -0.4
v 0.1 0.1 -0.5
v 0.1 0.1 -0.8
v 0.1 0.1 -0.9
v 0.1 3.7 -0.5
v 0.1 3.7 -0.6
v 0.1 3.7 -0.7
v 0.1 3.7 -0.8
v 0.1 4 -0.5
v 0.1 4 -0.6
v 0.1 4 -0.7
v 0.1 4 -0.8
v 0.1 4.1 -0.6
v 0.1 4.1 -0.7
v 0.2 0 -0.5
v 0.2 0 -0.8
v 0.2 0.1 -0.5
v 0.2 0.1 -0.8
v 0.2 3.6 -0.6
v 0.2 3.6 -0.7
v 0.2 4 -0.6
v 0.2 4 -0.7
v -0.2 0 -0.4
v -0.2 0.1 -0.4
v -0.1 3.6 -0.4
v -0.1 4 -0.4
v 2.98023e-08 3.6 -0.4
v 2.98023e-08 4 -0.4
v 0.1 0 -0.4
v 0.1 0.1 -0.4
v -0.3 0 -0.5
v -0.3 0.1 -0.5
v -0.2 0 -0.5
v -0.2 0.1 -0.5
v -0.2 3.7 -0.5
v -0.2 4 -0.5
v -0.1 3.7 -0.5
v -0.1 4 -0.5
v -0.1 4.1 -0.5
v 2.98023e-08 3.7 -0.5
v 2.98023e-08 4 -0.5
v 2.98023e-08 4.1 -0.5
v 0.1 0 -0.5
v 0.1 0.1 -0.5
v 0.1 3.7 -0.5
v 0.1 4 -0.5
v 0.2 0 -0.5
v 0.2 0.1 -0.5
v -0.3 3.6 -0.6
v -0.3 4 -0.6
v -0.2 3.7 -0.6
v -0.2 4 -0.6
v -0.2 4.1 -0.6
v -0.1 0.1 -0.6
v -0.1 3.6 -0.6
v -0.1 3.7 -0.6
v -0.1 4 -0.6
v -0.1 4.1 -0.6
v -0.1 4.2 -0.6
v 2.98023e-08 0.1 -0.6
v 2.98023e-08 3.6 -0.6
v 2.98023e-08 3.7 -0.6
v 2.98023e-08 4 -0.6
v 2.98023e-08 4.1 -0.6
v 2.98023e-08 4.2 -0.6
v 0.1 3.7 -0.6
v 0.1 4 -0.6
v 0.1 4.1 -0.6
v 0.2 3.6 -0.6
v 0.2 4 -0.6
v -0.3 3.6 -0.7
v -0.3 4 -0.7
v -0.2 3.7 -0.7
v -0.2 4 -0.7
v -0.2 4.1 -0.7
v -0.1 0.1 -0.7
v -0.1 3.6 -0.7
v -0.1 3.7 -0.7
v -0.1 4 -0.7
v -0.1 4.1 -0.7
v -0.1 4.2 -0.7
v 2.98023e-08 0.1 -0.7
v 2.98023e-08 3.6 -0.7
v 2.98023e-08 3.7 -0.7
v 2.98023e-08 4 -0.7
v 2.98023e-08 4.1 -0.7
v 2.98023e-08 4.2 -0.7
v 0.1 3.7 -0.7
v 0.1 4 -0.7
v 0.1 4.1 -0.7
v 0.2 3.6 -0.7
v 0.2 4 -0.7
v -0.3 0 -0.8
v -0.3 0.1 -0.8
v -0.2 0 -0.8
v -0.2 0.1 -0.8
v -0.2 3.7 -0.8
v -0.2 4 -0.8
v -0.1 3.7 -0.8
v -0.1 4 -0.8
v -0.1 4.1 -0.8
v 2.98023e-08 3.7 -0.8
v 2.98023e-08 4 -0.8
v 2.98023e-08 4.1 -0.8
v 0.1 0 -0.8
v 0.1 0.1 -0.8
v 0.1 3.7 -0.8
v 0.1 4 -0.8
v 0.2 0 -0.8
v 0.2 0.1 -0.8
v -0.2 0 -0.9
v -0.2 0.1 -0.9
v -0.1 3.6 -0.9
v -0.1 4 -0.9
v 2.98023e-08 3.6 -0.9
v 2.98023e-08 4 -0.9
v 0.1 0 -0.9
v 0.1 0.1 -0.9
v -0.2 0 -0.4
v 0.1 0 -0.4
v -0.3 0 -0.5
v -0.2 0 -0.5
v 0.1 0 -0.5
v 0.2 0 -0.5
v -0.3 0 -0.8
v -0.2 0 -0.8
v 0.1 0 -0.8
v 0.2 0 -0.8
v -0.2 0 -0.9
v 0.1 0 -0.9
v -0.1 3.6 -0.4
v 2.98023e-08 3.6 -0.4
v -0.3 3.6 -0.6
v -0.1 3.6 -0.6
v 2.98023e-08 3.6 -0.6
v 0.2 3.6 -0.6
v -0.3 3.6 -0.7
v -0.1 3.6 -0.7
v 2.98023e-08 3.6 -0.7
v 0.2 3.6 -0.7
v -0.1 3.6 -0.9
v 2.98023e-08 3.6 -0.9
v -0.2 3.7 -0.5
v -0.1 3.7 -0.5
v 2.98023e-08 3.7 -0.5
v 0.1 3.7 -0.5
v -0.2 3.7 -0.6
v -0.1 3.7 -0.6
v 2.98023e-08 3.7 -0.6
v 0.1 3.7 -0.6
v -0.2 3.7 -0.7
v -0.1 3.7 -0.7
v 2.98023e-08 3.7 -0.7
v 0.1 3.7 -0.7
v -0.2 3.7 -0.8
v -0.1 3.7 -0.8
v 2.98023e-08 3.7 -0.8
v 0.1 3.7 -0.8
v -0.2 0.1 -0.4
v 0.1 0.1 -0.4
v -0.3 0.1 -0.5
v -0.2 0.1 -0.5
v 0.1 0.1 -0.5
v 0.2 0.1 -0.5
v -0.1 0.1 -0.6
v 2.98023e-08 0.1 -0.6
v -0.1 0.1 -0.7
v 2.98023e-08 0.1 -0.7
v -0.3 0.1 -0.8
v -0.2 0.1 -0.8
v 0.1 0.1 -0.8
v 0.2 0.1 -0.8
v -0.2 0.1 -0.9
v 0.1 0.1 -0.9
v -0.1 4 -0.4
v 2.98023e-08 4 -0.4
v -0.2 4 -0.5
v -0.1 4 -0.5
v 2.98023e-08 4 -0.5
v 0.1 4 -0.5
v -0.3 4 -0.6
v -0.2 4 -0.6
v -0.1 4 -0.6
v 2.98023e-08 4 -0.6
v 0.1 4 -0.6
v 0.2 4 -0.6
v -0.3 4 -0.7
v -0.2 4 -0.7
v -0.1 4 -0.7
v 2.98023e-08 4 -0.7
v 0.1 4 -0.7
v 0.2 4 -0.7
v -0.2 4 -0.8
v -0.1 4 -0.8
v 2.98023e-08 4 -0.8
v 0.1 4 -0.8
v -0.1 4 -0.9
v 2.98023e-08 4 -0.9
v -0.1 4.1 -0.5
v 2.98023e-08 4.1 -0.5
v -0.2 4.1 -0.6
v -0.1 4.1 -0.6
v 2.98023e-08 4.1 -0.6
v 0.1 4.1 -0.6
v -0.2 4.1 -0.7
v -0.1 4.1 -0.7
v 2.98023e-08 4.1 -0.7
v 0.1 4.1 -0.7
v -0.1 4.1 -0.8
v 2.98023e-08 4.1 -0.8
v -0.1 4.2 -0.6
v 2.98023e-08 4.2 -0.6
v -0.1 4.2 -0.7
v 2.98023e-08 4.2 -0.7

# faces
f 3/2/1 2/2/1 1/2/1
f 4/2/1 2/2/1 3/2/1
f 7/2/1 6/2/1 5/2/1
f 8/2/1 6/2/1 7/2/1
f 13/2/1 10/2/1 9/2/1
f 14/2/1 10/2/1 13/2/1
f 15/2/1 12/2/1 11/2/1
f 16/2/1 12/2/1 15/2/1
f 21/1/1 18/1/1 17/1/1
f 22/1/1 18/1/1 21/1/1
f 23/1/1 20/1/1 19/1/1
f 24/1/1 20/1/1 23/1/1
f 25/2/1 23/2/1 22/2/1
f 26/2/1 23/2/1 25/2/1
f 30/2/1 28/2/1 27/2/1
f 31/2/1 28/2/1 30/2/1
f 33/2/1 30/2/1 29/2/1
f 34/2/1 30/2/1 33/2/1
f 35/2/1 32/2/1 31/2/1
f 36/2/1 32/2/1 35/2/1
f 37/2/1 33/2/1 29/2/1
f 38/2/1 33/2/1 37/2/1
f 41/2/1 32/2/1 36/2/1
f 42/2/1 32/2/1 41/2/1
f 43/2/1 39/2/1 38/2/1
f 44/2/1 39/2/1 43/2/1
f 45/2/1 41/2/1 40/2/1
f 46/2/1 41/2/1 45/2/1
f 47/2/1 45/2/1 44/2/1
f 48/2/1 45/2/1 47/2/1
f 49/2/2 50/2/2 52/2/2
f 52/2/2 50/2/2 53/2/2
f 51/2/2 52/2/2 55/2/2
f 55/2/2 52/2/2 56/2/2
f 53/2/2 54/2/2 57/2/2
f 57/2/2 54/2/2 58/2/2
f 51/2/2 55/2/2 59/2/2
f 59/2/2 55/2/2 60/2/2
f 58/2/2 54/2/2 63/2/2
f 63/2/2 54/2/2 64/2/2
f 60/2/2 61/2/2 65/2/2
f 65/2/2 61/2/2 66/2/2
f 62/2/2 63/2/2 67/2/2
f 67/2/2 63/2/2 68/2/2
f 66/2/2 67/2/2 69/2/2
f 69/2/2 67/2/2 70/2/2
f 71/2/2 72/2/2 75/2/2
f 75/2/2 72/2/2 76/2/2
f 73/2/2 74/2/2 77/2/2
f 77/2/2 74/2/2 78/2/2
f 79/1/2 80/1/2 83/1/2
f 83/1/2 80/1/2 84/1/2
f 81/1/2 82/1/2 85/1/2
f 85/1/2 82/1/2 86/1/2
f 84/2/2 85/2/2 87/2/2
f 87/2/2 85/2/2 88/2/2
f 89/2/2 90/2/2 91/2/2
f 91/2/2 90/2/2 92/2/2
f 93/2/2 94/2/2 95/2/2
f 95/2/2 94/2/2 96/2/2
f 101/2/3 100/2/3 99/2/3
f 102/2/3 100/2/3 101/2/3
f 103/2/3 98/2/3 97/2/3
f 104/2/3 98/2/3 103/2/3
f 107/2/3 106/2/3 105/2/3
f 108/2/3 106/2/3 107/2/3
f 111/1/3 110/1/3 109/1/3
f 112/1/3 110/1/3 111/1/3
f 115/2/3 113/2/3 112/2/3
f 116/2/3 113/2/3 115/2/3
f 119/1/3 115/1/3 114/1/3
f 120/1/3 115/1/3 119/1/3
f 121/2/3 118/2/3 117/2/3
f 122/2/3 118/2/3 121/2/3
f 125/2/3 124/2/3 123/2/3
f 126/2/3 124/2/3 125/2/3
f 129/2/3 125/2/3 123/2/3
f 130/2/3 125/2/3 129/2/3
f 131/2/3 127/2/3 126/2/3
f 132/2/3 127/2/3 131/2/3
f 134/2/3 129/2/3 128/2/3
f 135/2/3 129/2/3 134/2/3
f 138/2/3 133/2/3 132/2/3
f 139/2/3 133/2/3 138/2/3
f 140/2/3 136/2/3 135/2/3
f 141/2/3 138/2/3 137/2/3
f 142/2/3 138/2/3 141/2/3
f 143/2/3 140/2/3 135/2/3
f 143/2/3 141/2/3 140/2/3
f 144/2/3 141/2/3 143/2/3
f 145/2/4 146/2/4 147/2/4
f 147/2/4 146/2/4 148/2/4
f 145/2/4 147/2/4 151/2/4
f 151/2/4 147/2/4 152/2/4
f 148/2/4 149/2/4 153/2/4
f 153/2/4 149/2/4 154/2/4
f 150/2/4 151/2/4 156/2/4
f 156/2/4 151/2/4 157/2/4
f 154/2/4 155/2/4 160/2/4
f 160/2/4 155/2/4 161/2/4
f 157/2/4 158/2/4 162/2/4
f 159/2/4 160/2/4 163/2/4
f 163/2/4 160/2/4 164/2/4
f 157/2/4 162/2/4 165/2/4
f 162/2/4 163/2/4 165/2/4
f 165/2/4 163/2/4 166/2/4
f 167/2/4 168/2/4 169/2/4
f 169/2/4 168/2/4 170/2/4
f 171/1/4 172/1/4 173/1/4
f 173/1/4 172/1/4 174/1/4
f 174/2/4 175/2/4 177/2/4
f 177/2/4 175/2/4 178/2/4
f 176/1/4 177/1/4 181/1/4
f 181/1/4 177/1/4 182/1/4
f 179/2/4 180/2/4 183/2/4
f 183/2/4 180/2/4 184/2/4
f 187/2/4 188/2/4 189/2/4
f 189/2/4 188/2/4 190/2/4
f 185/2/4 186/2/4 191/2/4
f 191/2/4 186/2/4 192/2/4
f 196/2/5 194/2/5 193/2/5
f 197/2/5 194/2/5 196/2/5
f 199/2/5 196/2/5 195/2/5
f 199/2/5 198/2/5 197/2/5
f 199/2/5 197/2/5 196/2/5
f 200/2/5 198/2/5 199/2/5
f 201/2/5 198/2/5 200/2/5
f 202/2/5 198/2/5 201/2/5
f 203/2/5 201/2/5 200/2/5
f 204/2/5 201/2/5 203/2/5
f 208/2/5 206/2/5 205/2/5
f 209/2/5 206/2/5 208/2/5
f 211/2/5 208/2/5 207/2/5
f 212/2/5 208/2/5 211/2/5
f 213/2/5 210/2/5 209/2/5
f 214/2/5 210/2/5 213/2/5
f 215/2/5 213/2/5 212/2/5
f 216/2/5 213/2/5 215/2/5
f 221/1/5 218/1/5 217/1/5
f 222/1/5 218/1/5 221/1/5
f 223/1/5 220/1/5 219/1/5
f 224/1/5 220/1/5 223/1/5
f 229/1/5 226/1/5 225/1/5
f 230/1/5 226/1/5 229/1/5
f 231/1/5 228/1/5 227/1/5
f 232/1/5 228/1/5 231/1/5
f 233/2/6 234/2/6 236/2/6
f 236/2/6 234/2/6 237/2/6
f 235/2/6 236/2/6 239/2/6
f 237/2/6 238/2/6 239/2/6
f 236/2/6 237/2/6 239/2/6
f 239/2/6 238/2/6 240/2/6
f 235/2/6 239/2/6 241/2/6
f 240/2/6 238/2/6 242/2/6
f 235/2/6 241/2/6 243/2/6
f 241/2/6 242/2/6 243/2/6
f 243/2/6 242/2/6 244/2/6
f 242/2/6 238/2/6 245/2/6
f 244/2/6 242/2/6 245/2/6
f 245/2/6 238/2/6 246/2/6
f 244/2/6 245/2/6 247/2/6
f 247/2/6 245/2/6 248/2/6
f 249/2/6 250/2/6 252/2/6
f 252/2/6 250/2/6 253/2/6
f 251/1/6 252/1/6 256/1/6
f 256/1/6 252/1/6 257/1/6
f 253/1/6 254/1/6 258/1/6
f 258/1/6 254/1/6 259/1/6
f 255/2/6 256/2/6 261/2/6
f 261/2/6 256/2/6 262/2/6
f 259/2/6 260/2/6 265/2/6
f 265/2/6 260/2/6 266/2/6
f 262/1/6 263/1/6 267/1/6
f 267/1/6 263/1/6 268/1/6
f 264/1/6 265/1/6 269/1/6
f 269/1/6 265/1/6 270/1/6
f 268/2/6 269/2/6 271/2/6
f 271/2/6 269/2/6 272/2/6
f 273/2/6 274/2/6 276/2/6
f 276/2/6 274/2/6 277/2/6
f 275/2/6 276/2/6 279/2/6
f 279/2/6 276/2/6 280/2/6
f 277/2/6 278/2/6 281/2/6
f 281/2/6 278/2/6 282/2/6
f 280/2/6 281/2/6 283/2/6
f 283/2/6 281/2/6 284/2/6
f 285/2/6 286/2/6 287/2/6
f 287/2/6 286/2/6 288/2/6
